<svg width="170" height="170" viewBox="0 0 170 170" fill="none" xmlns="http://www.w3.org/2000/svg">
<path d="M44.316 138.96L42.972 144H42.192L40.62 139.044L39.048 144H38.304L36.972 138.96C36.916 138.728 36.868 138.588 36.828 138.54C36.796 138.492 36.716 138.46 36.588 138.444L35.976 138.384V138.06H38.7V138.384L38.076 138.444C37.948 138.46 37.876 138.492 37.86 138.54C37.852 138.588 37.88 138.728 37.944 138.96L38.976 142.92L40.5 138.06H41.28L42.828 142.992L43.872 138.96C43.936 138.728 43.96 138.588 43.944 138.54C43.936 138.492 43.868 138.46 43.74 138.444L43.116 138.384V138.06H45.312V138.384L44.7 138.444C44.58 138.46 44.5 138.492 44.46 138.54C44.428 138.588 44.38 138.728 44.316 138.96ZM50.6726 142.632C50.5286 143.176 50.2566 143.56 49.8566 143.784C49.4646 144.008 49.0286 144.12 48.5486 144.12C47.6606 144.12 46.9966 143.852 46.5566 143.316C46.1166 142.772 45.8966 142.048 45.8966 141.144V140.904C45.8966 140.008 46.1086 139.292 46.5326 138.756C46.9566 138.212 47.5726 137.94 48.3806 137.94C48.8126 137.94 49.2046 138.028 49.5566 138.204C49.9166 138.38 50.2006 138.64 50.4086 138.984C50.6246 139.328 50.7326 139.756 50.7326 140.268C50.7326 140.508 50.7086 140.76 50.6606 141.024H46.9766V141.384C46.9766 142.224 47.1046 142.828 47.3606 143.196C47.6246 143.556 48.0486 143.736 48.6326 143.736C49.0006 143.736 49.3046 143.64 49.5446 143.448C49.7926 143.256 49.9566 142.924 50.0366 142.452L50.6726 142.632ZM48.3806 138.324C47.9086 138.324 47.5566 138.504 47.3246 138.864C47.0926 139.224 46.9766 139.816 46.9766 140.64H49.6766V140.604C49.6926 140.5 49.7046 140.4 49.7126 140.304C49.7206 140.2 49.7246 140.108 49.7246 140.028C49.7246 139.428 49.6006 138.996 49.3526 138.732C49.1046 138.46 48.7806 138.324 48.3806 138.324ZM51.6973 135.444V135.12H53.6053V138.924C53.8373 138.58 54.1013 138.332 54.3973 138.18C54.6933 138.02 55.0133 137.94 55.3573 137.94C56.0453 137.94 56.5773 138.2 56.9533 138.72C57.3373 139.24 57.5293 139.968 57.5293 140.904V141.144C57.5293 142.056 57.3093 142.78 56.8693 143.316C56.4373 143.852 55.8293 144.12 55.0453 144.12C54.4213 144.12 53.9093 143.916 53.5093 143.508C53.3973 143.572 53.2933 143.652 53.1973 143.748C53.1013 143.844 53.0053 143.948 52.9093 144.06H52.6213V136.092C52.6213 135.812 52.6093 135.648 52.5853 135.6C52.5613 135.552 52.4853 135.52 52.3573 135.504L51.6973 135.444ZM55.2013 138.372C54.9533 138.372 54.6933 138.452 54.4213 138.612C54.1573 138.772 53.8853 139.096 53.6053 139.584V143.016C53.9493 143.488 54.4053 143.724 54.9733 143.724C55.4933 143.724 55.8693 143.528 56.1013 143.136C56.3333 142.736 56.4493 142.192 56.4493 141.504V140.544C56.4493 139.792 56.3413 139.244 56.1253 138.9C55.9093 138.548 55.6013 138.372 55.2013 138.372ZM67.667 143.7V144H65.819V143.052C65.571 143.42 65.295 143.692 64.991 143.868C64.695 144.036 64.363 144.12 63.995 144.12C63.307 144.12 62.771 143.864 62.387 143.352C62.011 142.832 61.823 142.1 61.823 141.156V140.916C61.823 140.012 62.043 139.292 62.483 138.756C62.931 138.212 63.543 137.94 64.319 137.94C64.887 137.94 65.367 138.116 65.759 138.468V136.092C65.759 135.812 65.747 135.648 65.723 135.6C65.699 135.552 65.623 135.52 65.495 135.504L64.835 135.444V135.12H66.743V143.028C66.743 143.308 66.755 143.472 66.779 143.52C66.803 143.568 66.879 143.6 67.007 143.616L67.667 143.7ZM62.903 141.516C62.903 142.268 63.011 142.82 63.227 143.172C63.451 143.524 63.759 143.7 64.151 143.7C64.407 143.7 64.671 143.62 64.943 143.46C65.215 143.3 65.487 142.976 65.759 142.488V139.056C65.407 138.584 64.947 138.348 64.379 138.348C63.867 138.348 63.491 138.544 63.251 138.936C63.019 139.328 62.903 139.868 62.903 140.556V141.516ZM73.5359 142.632C73.3919 143.176 73.1199 143.56 72.7199 143.784C72.3279 144.008 71.8919 144.12 71.4119 144.12C70.5239 144.12 69.8599 143.852 69.4199 143.316C68.9799 142.772 68.7599 142.048 68.7599 141.144V140.904C68.7599 140.008 68.9719 139.292 69.3959 138.756C69.8199 138.212 70.4359 137.94 71.2439 137.94C71.6759 137.94 72.0679 138.028 72.4199 138.204C72.7799 138.38 73.0639 138.64 73.2719 138.984C73.4879 139.328 73.5959 139.756 73.5959 140.268C73.5959 140.508 73.5719 140.76 73.5239 141.024H69.8399V141.384C69.8399 142.224 69.9679 142.828 70.2239 143.196C70.4879 143.556 70.9119 143.736 71.4959 143.736C71.8639 143.736 72.1679 143.64 72.4079 143.448C72.6559 143.256 72.8199 142.924 72.8999 142.452L73.5359 142.632ZM71.2439 138.324C70.7719 138.324 70.4199 138.504 70.1879 138.864C69.9559 139.224 69.8399 139.816 69.8399 140.64H72.5399V140.604C72.5559 140.5 72.5679 140.4 72.5759 140.304C72.5839 140.2 72.5879 140.108 72.5879 140.028C72.5879 139.428 72.4639 138.996 72.2159 138.732C71.9679 138.46 71.6439 138.324 71.2439 138.324ZM79.5308 138.96L77.7788 144H76.9988L75.2348 138.96C75.1548 138.728 75.0948 138.588 75.0548 138.54C75.0148 138.492 74.9308 138.46 74.8028 138.444L74.1908 138.384V138.06H76.9268V138.384L76.3148 138.444C76.1868 138.46 76.1188 138.492 76.1108 138.54C76.1028 138.58 76.1388 138.72 76.2188 138.96L77.6708 143.136L79.0988 138.96C79.1788 138.72 79.2148 138.58 79.2068 138.54C79.1988 138.492 79.1308 138.46 79.0028 138.444L78.3788 138.384V138.06H80.5628V138.384L79.9508 138.444C79.8228 138.46 79.7388 138.492 79.6988 138.54C79.6668 138.58 79.6108 138.72 79.5308 138.96ZM85.8406 142.632C85.6966 143.176 85.4246 143.56 85.0246 143.784C84.6326 144.008 84.1966 144.12 83.7166 144.12C82.8286 144.12 82.1646 143.852 81.7246 143.316C81.2846 142.772 81.0646 142.048 81.0646 141.144V140.904C81.0646 140.008 81.2766 139.292 81.7006 138.756C82.1246 138.212 82.7406 137.94 83.5486 137.94C83.9806 137.94 84.3726 138.028 84.7246 138.204C85.0846 138.38 85.3686 138.64 85.5766 138.984C85.7926 139.328 85.9006 139.756 85.9006 140.268C85.9006 140.508 85.8766 140.76 85.8286 141.024H82.1446V141.384C82.1446 142.224 82.2726 142.828 82.5286 143.196C82.7926 143.556 83.2166 143.736 83.8006 143.736C84.1686 143.736 84.4726 143.64 84.7126 143.448C84.9606 143.256 85.1246 142.924 85.2046 142.452L85.8406 142.632ZM83.5486 138.324C83.0766 138.324 82.7246 138.504 82.4926 138.864C82.2606 139.224 82.1446 139.816 82.1446 140.64H84.8446V140.604C84.8606 140.5 84.8726 140.4 84.8806 140.304C84.8886 140.2 84.8926 140.108 84.8926 140.028C84.8926 139.428 84.7686 138.996 84.5206 138.732C84.2726 138.46 83.9486 138.324 83.5486 138.324ZM86.9493 135.444V135.12H88.8573V143.028C88.8573 143.308 88.8693 143.472 88.8933 143.52C88.9173 143.568 88.9933 143.6 89.1213 143.616L89.7813 143.688V144H86.9493V143.688L87.6093 143.616C87.7373 143.6 87.8133 143.568 87.8373 143.52C87.8613 143.472 87.8733 143.308 87.8733 143.028V136.092C87.8733 135.812 87.8613 135.648 87.8373 135.6C87.8133 135.552 87.7373 135.52 87.6093 135.504L86.9493 135.444ZM96.0689 140.904V141.144C96.0689 142.048 95.8409 142.772 95.3849 143.316C94.9369 143.852 94.2969 144.12 93.4649 144.12C92.6409 144.12 92.0009 143.852 91.5449 143.316C91.0969 142.772 90.8729 142.048 90.8729 141.144V140.904C90.8729 140.008 91.0969 139.292 91.5449 138.756C91.9929 138.212 92.6329 137.94 93.4649 137.94C94.2969 137.94 94.9369 138.212 95.3849 138.756C95.8409 139.292 96.0689 140.008 96.0689 140.904ZM94.9889 140.664C94.9889 139.832 94.8569 139.236 94.5929 138.876C94.3369 138.508 93.9609 138.324 93.4649 138.324C92.9769 138.324 92.6009 138.508 92.3369 138.876C92.0809 139.236 91.9529 139.832 91.9529 140.664V141.384C91.9529 142.224 92.0809 142.828 92.3369 143.196C92.6009 143.556 92.9769 143.736 93.4649 143.736C93.9609 143.736 94.3369 143.556 94.5929 143.196C94.8569 142.828 94.9889 142.224 94.9889 141.384V140.664ZM97.1446 138.372V138.06H98.9926V139.02C99.2326 138.644 99.5006 138.372 99.7966 138.204C100.101 138.028 100.437 137.94 100.805 137.94C101.493 137.94 102.025 138.2 102.401 138.72C102.785 139.24 102.977 139.968 102.977 140.904V141.144C102.977 142.056 102.757 142.78 102.317 143.316C101.877 143.852 101.265 144.12 100.481 144.12C99.9206 144.12 99.4446 143.948 99.0526 143.604V145.584C99.0526 145.856 99.0646 146.016 99.0886 146.064C99.1126 146.12 99.1886 146.156 99.3166 146.172L100.217 146.232V146.556H97.1446V146.232L97.8046 146.172C97.9326 146.156 98.0086 146.12 98.0326 146.064C98.0566 146.016 98.0686 145.856 98.0686 145.584V139.032C98.0686 138.752 98.0566 138.588 98.0326 138.54C98.0086 138.492 97.9326 138.46 97.8046 138.444L97.1446 138.372ZM100.649 138.372C100.401 138.372 100.141 138.452 99.8686 138.612C99.6046 138.772 99.3326 139.096 99.0526 139.584V143.016C99.3966 143.488 99.8526 143.724 100.421 143.724C100.941 143.724 101.317 143.528 101.549 143.136C101.781 142.736 101.897 142.192 101.897 141.504V140.544C101.897 139.792 101.789 139.244 101.573 138.9C101.357 138.548 101.049 138.372 100.649 138.372ZM110.778 143.688V144H107.946V143.688L108.606 143.616C108.734 143.6 108.81 143.568 108.834 143.52C108.858 143.472 108.87 143.308 108.87 143.028V140.04C108.87 139.448 108.778 139.032 108.594 138.792C108.418 138.544 108.158 138.42 107.814 138.42C107.566 138.42 107.286 138.5 106.974 138.66C106.67 138.82 106.378 139.128 106.098 139.584V143.028C106.098 143.308 106.11 143.472 106.134 143.52C106.158 143.568 106.234 143.6 106.362 143.616L107.022 143.688V144H104.19V143.688L104.85 143.616C104.978 143.6 105.054 143.568 105.078 143.52C105.102 143.472 105.114 143.308 105.114 143.028V139.032C105.114 138.752 105.102 138.588 105.078 138.54C105.054 138.492 104.978 138.46 104.85 138.444L104.19 138.384V138.06H106.038V139.032C106.318 138.656 106.634 138.38 106.986 138.204C107.346 138.028 107.702 137.94 108.054 137.94C108.918 137.94 109.474 138.336 109.722 139.128C110.018 138.712 110.346 138.412 110.706 138.228C111.074 138.036 111.442 137.94 111.81 137.94C112.378 137.94 112.818 138.124 113.13 138.492C113.45 138.852 113.61 139.364 113.61 140.028V143.028C113.61 143.308 113.622 143.472 113.646 143.52C113.67 143.568 113.746 143.6 113.874 143.616L114.534 143.688V144H111.702V143.688L112.362 143.616C112.49 143.6 112.566 143.568 112.59 143.52C112.614 143.472 112.626 143.308 112.626 143.028V140.04C112.626 139.448 112.534 139.032 112.35 138.792C112.174 138.544 111.914 138.42 111.57 138.42C111.322 138.42 111.038 138.504 110.718 138.672C110.406 138.832 110.11 139.148 109.83 139.62C109.838 139.684 109.842 139.752 109.842 139.824C109.85 139.888 109.854 139.956 109.854 140.028V143.028C109.854 143.308 109.866 143.472 109.89 143.52C109.914 143.568 109.99 143.6 110.118 143.616L110.778 143.688ZM120.341 142.632C120.197 143.176 119.925 143.56 119.525 143.784C119.133 144.008 118.697 144.12 118.217 144.12C117.329 144.12 116.665 143.852 116.225 143.316C115.785 142.772 115.565 142.048 115.565 141.144V140.904C115.565 140.008 115.777 139.292 116.201 138.756C116.625 138.212 117.241 137.94 118.049 137.94C118.481 137.94 118.873 138.028 119.225 138.204C119.585 138.38 119.869 138.64 120.077 138.984C120.293 139.328 120.401 139.756 120.401 140.268C120.401 140.508 120.377 140.76 120.329 141.024H116.645V141.384C116.645 142.224 116.773 142.828 117.029 143.196C117.293 143.556 117.717 143.736 118.301 143.736C118.669 143.736 118.973 143.64 119.213 143.448C119.461 143.256 119.625 142.924 119.705 142.452L120.341 142.632ZM118.049 138.324C117.577 138.324 117.225 138.504 116.993 138.864C116.761 139.224 116.645 139.816 116.645 140.64H119.345V140.604C119.361 140.5 119.373 140.4 119.381 140.304C119.389 140.2 119.393 140.108 119.393 140.028C119.393 139.428 119.269 138.996 119.021 138.732C118.773 138.46 118.449 138.324 118.049 138.324ZM128.241 143.688V144H125.409V143.688L126.069 143.616C126.197 143.6 126.273 143.568 126.297 143.52C126.321 143.472 126.333 143.308 126.333 143.028V140.04C126.333 139.448 126.237 139.032 126.045 138.792C125.853 138.544 125.577 138.42 125.217 138.42C124.953 138.42 124.661 138.5 124.341 138.66C124.021 138.82 123.721 139.132 123.441 139.596V143.028C123.441 143.308 123.453 143.472 123.477 143.52C123.501 143.568 123.577 143.6 123.705 143.616L124.365 143.688V144H121.533V143.688L122.193 143.616C122.321 143.6 122.397 143.568 122.421 143.52C122.445 143.472 122.457 143.308 122.457 143.028V139.032C122.457 138.752 122.445 138.588 122.421 138.54C122.397 138.492 122.321 138.46 122.193 138.444L121.533 138.384V138.06H123.381V139.032C123.669 138.648 123.993 138.372 124.353 138.204C124.721 138.028 125.089 137.94 125.457 137.94C126.049 137.94 126.505 138.124 126.825 138.492C127.153 138.852 127.317 139.364 127.317 140.028V143.028C127.317 143.308 127.329 143.472 127.353 143.52C127.377 143.568 127.453 143.6 127.581 143.616L128.241 143.688ZM132.9 142.776C132.78 143.24 132.592 143.58 132.336 143.796C132.08 144.012 131.752 144.12 131.352 144.12C130.968 144.12 130.656 144.036 130.416 143.868C130.176 143.692 130 143.464 129.888 143.184C129.776 142.904 129.72 142.612 129.72 142.308V139.032C129.72 138.752 129.708 138.588 129.684 138.54C129.668 138.492 129.592 138.46 129.456 138.444L128.796 138.384V138.06H129.72V136.488L130.704 136.284V138.06H132.66V138.444H130.704V142.404C130.704 142.908 130.772 143.256 130.908 143.448C131.052 143.64 131.24 143.736 131.472 143.736C131.704 143.736 131.88 143.648 132 143.472C132.128 143.296 132.22 143.008 132.276 142.608L132.9 142.776Z" fill="white"/>
<path d="M62 125H33.2727V31.9091H63.2727C72.303 31.9091 80.0303 33.7727 86.4545 37.5C92.8788 41.197 97.803 46.5151 101.227 53.4545C104.652 60.3636 106.364 68.6364 106.364 78.2727C106.364 87.9697 104.636 96.3182 101.182 103.318C97.7273 110.288 92.697 115.652 86.0909 119.409C79.4849 123.136 71.4545 125 62 125ZM44.5455 115H61.2727C68.9697 115 75.3485 113.515 80.4091 110.545C85.4697 107.576 89.2424 103.348 91.7273 97.8636C94.2121 92.3788 95.4545 85.8485 95.4545 78.2727C95.4545 70.7576 94.2273 64.2879 91.7727 58.8636C89.3182 53.4091 85.6515 49.2273 80.7727 46.3182C75.8939 43.3788 69.8182 41.9091 62.5455 41.9091H44.5455V115ZM136.545 31.9091V125H125.273V31.9091H136.545Z" fill="white"/>
<rect x="4" y="4" width="162" height="162" stroke="white" stroke-width="8"/>
</svg>
